<svg width="32" height="32" viewBox="0 0 32 32" fill="none" xmlns="http://www.w3.org/2000/svg">
<circle cx="16" cy="16" r="16" fill="#F3456F"/>
<path d="M18.6667 10.6666H20.0001C20.3537 10.6666 20.6928 10.8071 20.9429 11.0572C21.1929 11.3072 21.3334 11.6463 21.3334 12V21.3333C21.3334 21.6869 21.1929 22.0261 20.9429 22.2761C20.6928 22.5262 20.3537 22.6666 20.0001 22.6666H12.0001C11.6465 22.6666 11.3073 22.5262 11.0573 22.2761C10.8072 22.0261 10.6667 21.6869 10.6667 21.3333V12C10.6667 11.6463 10.8072 11.3072 11.0573 11.0572C11.3073 10.8071 11.6465 10.6666 12.0001 10.6666H13.3334" stroke="white" stroke-width="1.33333" stroke-linecap="round" stroke-linejoin="round"/>
<path d="M17.9999 9.33337H13.9999C13.6317 9.33337 13.3333 9.63185 13.3333 10V11.3334C13.3333 11.7016 13.6317 12 13.9999 12H17.9999C18.3681 12 18.6666 11.7016 18.6666 11.3334V10C18.6666 9.63185 18.3681 9.33337 17.9999 9.33337Z" stroke="white" stroke-width="1.33333" stroke-linecap="round" stroke-linejoin="round"/>
</svg>
