<svg width="32" height="32" viewBox="0 0 32 32" fill="none" xmlns="http://www.w3.org/2000/svg">
<circle cx="16" cy="16" r="16" fill="#F3456F"/>
<path d="M14.0002 22.6667C14.3684 22.6667 14.6668 22.3682 14.6668 22C14.6668 21.6318 14.3684 21.3333 14.0002 21.3333C13.632 21.3333 13.3335 21.6318 13.3335 22C13.3335 22.3682 13.632 22.6667 14.0002 22.6667Z" stroke="white" stroke-width="1.33333" stroke-linecap="round" stroke-linejoin="round"/>
<path d="M21.3332 22.6667C21.7014 22.6667 21.9998 22.3682 21.9998 22C21.9998 21.6318 21.7014 21.3333 21.3332 21.3333C20.965 21.3333 20.6665 21.6318 20.6665 22C20.6665 22.3682 20.965 22.6667 21.3332 22.6667Z" stroke="white" stroke-width="1.33333" stroke-linecap="round" stroke-linejoin="round"/>
<path d="M8.6665 8.66667H11.3332L13.1198 17.5933C13.1808 17.9003 13.3478 18.176 13.5915 18.3722C13.8353 18.5684 14.1403 18.6727 14.4532 18.6667H20.9332C21.246 18.6727 21.551 18.5684 21.7948 18.3722C22.0386 18.176 22.2055 17.9003 22.2665 17.5933L23.3332 12H11.9998" stroke="white" stroke-width="1.33333" stroke-linecap="round" stroke-linejoin="round"/>
</svg>
