<svg width="32" height="44" viewBox="0 0 32 44" fill="none" xmlns="http://www.w3.org/2000/svg">
<path d="M31.7569 40.0107L29.5239 14.7107C29.3561 12.8049 27.7859 11.3667 25.8719 11.3667C25.4321 11.3667 25.0744 11.7242 25.0744 12.1642V16.1086C25.0744 16.4991 24.7792 16.8401 24.3896 16.8648C23.9624 16.8923 23.6077 16.5541 23.6077 16.1333V7.60833C23.6077 3.41275 20.1949 0 15.9994 0C11.8038 0 8.39102 3.41275 8.39102 7.60833V11.3667H6.12685C4.21285 11.3667 2.6426 12.8049 2.47485 14.7107L0.241854 40.0107C0.0539377 42.1488 1.73996 44 3.89477 44H28.1039C30.259 44 31.9448 42.1485 31.7569 40.0107ZM11.7827 39.1417H6.46602C6.06104 39.1417 5.73269 38.8133 5.73269 38.4083C5.73269 38.0033 6.06104 37.675 6.46602 37.675H11.7827C12.1877 37.675 12.516 38.0033 12.516 38.4083C12.516 38.8133 12.1877 39.1417 11.7827 39.1417ZM11.7827 35.475H6.46602C6.06104 35.475 5.73269 35.1467 5.73269 34.7417C5.73269 34.3367 6.06104 34.0083 6.46602 34.0083H11.7827C12.1877 34.0083 12.516 34.3367 12.516 34.7417C12.516 35.1467 12.1877 35.475 11.7827 35.475ZM22.141 11.3667H12.1219C11.6819 11.3667 11.3244 11.7242 11.3244 12.1642V16.1086C11.3244 16.4991 11.0292 16.8401 10.6396 16.8648C10.2124 16.8923 9.85769 16.5541 9.85769 16.1333V7.60833C9.85769 4.22217 12.6132 1.46667 15.9994 1.46667C19.3855 1.46667 22.141 4.22217 22.141 7.60833V11.3667Z" fill="#DB3022"/>
</svg>
